<?xml version="1.0" encoding="utf-8"?>
<!-- Generator: Adobe Illustrator 27.1.1, SVG Export Plug-In . SVG Version: 6.00 Build 0)  -->
<svg version="1.1" id="Layer_1" xmlns="http://www.w3.org/2000/svg" xmlns:xlink="http://www.w3.org/1999/xlink" x="0px" y="0px"
	 viewBox="0 0 150 150" style="enable-background:new 0 0 150 150;" xml:space="preserve">
<style type="text/css">
	.st0{fill:#CAFF33;}
	.st1{opacity:0.3;}
	.st2{opacity:0.5;}
	.st3{fill:none;stroke:#000000;stroke-width:2.4419;stroke-linecap:round;stroke-linejoin:round;stroke-miterlimit:1.2558;}
	.st4{fill:none;stroke:red;stroke-width:2.4419;stroke-linecap:round;stroke-linejoin:round;stroke-miterlimit:1.2558;}
	.st5{fill:none;stroke:red;stroke-width:2.4419;stroke-linecap:round;stroke-miterlimit:1.2558;}
</style>
<path class="st0" d="M125,92.2V63v0L79.6,75l-4.4,1.2l0,23l0,38.8c0.1,0,0.2,0,0.3,0l48.7-15.1c0.5-0.1,0.7-0.5,0.7-1L125,92.2z"/>
<path class="st0" d="M75.3,138c-0.1,0-0.2,0-0.2,0h0l-48.9-14.8c0,0,0,0-0.1,0c0,0-0.1,0-0.1,0c0,0-0.1,0-0.1-0.1c0,0-0.1,0-0.1-0.1
	l0,0l0,0l0-0.1c0,0,0,0,0,0c0,0,0-0.1-0.1-0.1v0c0,0,0,0,0-0.1c0,0,0,0,0,0c0,0,0,0,0,0c0,0,0,0,0,0c0,0,0,0,0-0.1s0,0,0,0s0,0,0,0
	c0,0,0-0.1,0-0.1L25.2,92l-0.1-28.7v0l50.1,13l0,23L75.3,138z"/>
<g>
	<path class="st0" d="M75.3,138c-0.1,0-0.2,0-0.2,0h0l-48.9-14.8c0,0,0,0-0.1,0c0,0-0.1,0-0.1,0c0,0-0.1,0-0.1-0.1
		c0,0-0.1,0-0.1-0.1l0,0l0,0l0-0.1v0c0,0,0-0.1-0.1-0.1v0c0,0,0,0,0-0.1c0,0,0,0,0,0c0,0,0,0,0,0c0,0,0,0,0,0c0,0,0,0,0-0.1s0,0,0,0
		s0,0,0,0c0,0,0-0.1,0-0.1L25.2,92l-0.1-28.7v0l50.1,13l0,23L75.3,138z"/>
</g>
<path class="st0" d="M132.7,46.4l-0.1,13.8c0,0,0,0.1,0,0.1c0,0.4-0.3,0.8-0.8,0.9L125,63L75.2,76.3l-50.2-13l-6.9-1.8
	c-0.5-0.1-0.8-0.5-0.8-1l-0.1-14.1c0-0.3,0.1-0.5,0.3-0.7L75,60.5l57.5-14.8c0.1,0.2,0.2,0.3,0.3,0.6
	C132.7,46.3,132.7,46.3,132.7,46.4z"/>
<path class="st0" d="M132.5,45.7c-0.1-0.1-0.3-0.2-0.5-0.3L75.3,30.7c-0.2,0-0.3,0-0.5,0L18,45.4c-0.2,0-0.3,0.1-0.5,0.3L75,60.5
	L132.5,45.7z"/>
<g class="st1">
	<path class="st0" d="M132.5,45.7L75,60.5L17.5,45.7c-0.2,0.2-0.3,0.4-0.3,0.7l0.1,14.1c0,0.5,0.3,0.9,0.8,1l6.9,1.8l50.1,12.9
		l4.4-1.2l45.3-12l6.9-1.8c0.4-0.1,0.7-0.5,0.8-0.9c0,0,0-0.1,0-0.1l0.1-13.9C132.7,46,132.6,45.8,132.5,45.7z"/>
</g>
<g class="st2">
	<path class="st0" d="M75.2,76.2L25.1,63.3l-6.9-1.8c-0.5-0.1-0.8-0.5-0.8-1l-0.1-14.1c0-0.3,0.1-0.5,0.3-0.7L75,60.5L75.2,76.2z"/>
</g>
<path class="st3" d="M132.7,45.6L132.6,61l-7.6,2L75.2,76.2L25.1,63.3l-7.7-2l-0.2-15.7 M75,30.7L17.2,45.6L75,60.5l57.8-14.9
	L75,30.7z"/>
<path class="st3" d="M75.2,76.2l0,23l0,38.8 M125,92.2V63v0L75.2,76.2l-50.2-13v0L25.2,92l0.1,31l49.9,15.1l49.7-15.4V92.2z"/>
<path class="st4" d="M75.1,42.8l-8.5,2.8l-21.8,7.1l-1.7,0.6l0,14.6V68l1.7,0.5l3,0.8l-0.1,29l-0.1,31.4 M75.1,42.9l0.2,0.1l0,0
	l8.2,2.7l21.7,7.1l1.8,0.6l0,14.3l-1.5,0.5l-0.6,0.2l-2.5,0.8l0.1,27.4l0.1,33.1"/>
<path class="st5" d="M75.3,42.3C0.7,31.9,59.5-20.2,76,43"/>
<path class="st5" d="M76.1,42.3c73.6-10.3,15.6-62.4-0.8,0.8"/>
</svg>
